# xmcd
#
# Track frame offsets:
#	150
#	12505
#	24455
#	37405
#	46162
#	58862
#	71232
#	87505
#	98567
#	112055
#	125107
#	137880
#	149922
#	161782
#	174745
#	185632
#	200920
#	214285
#	224667
#	236860
#	251485
#	266035
#	278257
#	290155
#	303270
#	317932
#	332595
#
# Disc length: 4563 seconds
#
# Revision: 1
# Processed by: cddbd v1.5.1PL0 Copyright (c) Steve Scherf et al.
# Submitted via: CDex 1.50Beta5
#
DISCID=cb11d11b
DTITLE=堀江美都子 - MICCHI 100% テーマソング・ヒストリー 〜あしたがすき〜 Disc 1
DYEAR=1999
DGENRE=Pop
TTITLE0=紅三四郎
TTITLE1=アクビ娘
TTITLE2=魔法のマコちゃん
TTITLE3=ボクはマコについてゆく
TTITLE4=さすらいの太陽
TTITLE5=心のうた
TTITLE6=かぐや姫先生のうた
TTITLE7=月光の子守唄
TTITLE8=けろっこデメタン
TTITLE9=まけるなデメタン
TTITLE10=緑の陽だまり
TTITLE11=ロッキーとポリー
TTITLE12=ジムボタンの歌
TTITLE13=ポッコちゃんが好き
TTITLE14=ぼくらきょうだいてんとう虫
TTITLE15=進め!ゴレンジャー
TTITLE16=ラ・セーヌの星
TTITLE17=シンドバットのぼうけん
TTITLE18=シンドバットのうた
TTITLE19=ペペロの冒険
TTITLE20=風よつたえて
TTITLE21=クムクムのうた
TTITLE22=サウルスくん
TTITLE23=ほらハックルベリィ・フィン
TTITLE24=河のうた
TTITLE25=斗え忍者キャプター
TTITLE26=大空のキャプター
EXTD=
EXTT0=
EXTT1=
EXTT2=
EXTT3=
EXTT4=
EXTT5=
EXTT6=
EXTT7=
EXTT8=
EXTT9=
EXTT10=
EXTT11=
EXTT12=
EXTT13=
EXTT14=
EXTT15=
EXTT16=
EXTT17=
EXTT18=
EXTT19=
EXTT20=
EXTT21=
EXTT22=
EXTT23=
EXTT24=
EXTT25=
EXTT26=
PLAYORDER=
